<svg version="1.1" id="Layer_1" xmlns="http://www.w3.org/2000/svg" xmlns:xlink="http://www.w3.org/1999/xlink" x="0px" y="0px"
	 width="100%" viewBox="0 0 512 512" enable-background="new 0 0 512 512" xml:space="preserve">
<path fill="#FF667A" opacity="1.000000" stroke="none" 
	d="
M1.000000,272.000000 
	C1.000000,257.645782 1.000000,243.291550 1.327066,228.803207 
	C2.099288,227.835297 2.841833,227.036774 2.945490,226.162491 
	C4.835132,210.224304 9.482115,195.003952 16.265404,180.599289 
	C26.683105,158.476761 41.094658,139.389252 60.399178,123.920174 
	C86.132019,103.299973 115.349365,92.305695 148.474716,89.902969 
	C168.488678,89.106445 187.749588,90.857880 206.651443,96.148788 
	C224.196991,101.060043 240.425995,108.898872 256.186707,118.248276 
	C256.536224,118.622749 256.784821,118.794144 257.026917,119.434311 
	C257.011505,148.237854 257.004059,176.570526 256.693420,204.775024 
	C254.801788,203.186829 253.261642,201.669724 251.616211,200.276993 
	C245.725784,195.291260 237.878052,194.869507 232.350494,199.189819 
	C226.098251,204.076569 223.455536,212.002090 228.390900,218.081482 
	C235.194122,226.461746 243.761307,233.430740 251.772415,240.786957 
	C252.946640,241.865204 255.222107,241.744171 256.990814,242.635529 
	C256.983063,252.711441 256.972534,262.329865 256.982422,271.974304 
	C257.002838,272.000305 257.041534,272.053223 256.569458,272.037872 
	C171.064896,272.015015 86.032448,272.007507 1.000000,272.000000 
z"/>
<path fill="#FF4471" opacity="1.000000" stroke="none" 
	d="
M256.962006,271.948273 
	C256.972534,262.329865 256.983063,252.711441 257.000427,242.550247 
	C257.007263,242.007477 257.022339,241.836487 257.408020,241.872040 
	C260.567383,240.895599 263.963043,240.575439 266.000000,238.744034 
	C272.539001,232.864899 279.041321,226.816574 284.667999,220.089325 
	C289.733429,214.033081 288.764587,206.398865 283.602173,201.007324 
	C278.270569,195.439072 271.362213,194.481705 264.584930,198.803635 
	C261.819824,200.566956 259.550568,203.107834 257.040100,205.197144 
	C257.024536,205.099304 256.996613,204.903183 256.996613,204.903183 
	C257.004059,176.570526 257.011505,148.237854 257.307220,119.248810 
	C274.976624,107.595894 293.598724,99.526512 313.574249,94.522491 
	C330.490692,90.284805 347.680511,89.442390 365.449127,89.904861 
	C372.731262,90.701721 379.733978,90.715591 386.364685,92.293106 
	C403.098419,96.274239 419.724060,101.050598 434.169708,110.780807 
	C445.096283,118.140648 456.306763,125.516953 465.649628,134.664383 
	C474.640381,143.467072 482.075104,154.111404 488.982361,164.734116 
	C501.176453,183.487488 508.061066,204.385193 511.073456,226.559326 
	C511.193604,227.443802 512.334656,228.189590 513.000000,229.000000 
	C513.000000,243.020889 513.000000,257.041779 512.531372,271.531769 
	C427.029114,271.983307 341.995575,271.965790 256.962006,271.948273 
z"/>
<path fill="#FF667A" opacity="1.000000" stroke="none" 
	d="
M257.000000,513.000000 
	C245.645767,513.000000 234.291550,513.000000 222.807114,512.661621 
	C222.001572,511.895905 221.368744,511.196686 220.644272,511.083374 
	C213.717819,510.000214 206.749634,509.168121 199.843353,507.975037 
	C179.613770,504.480286 160.154861,498.254059 141.562805,489.719421 
	C122.734322,481.076233 105.261223,470.189758 89.137100,456.924713 
	C73.620285,444.159241 59.961430,429.751343 48.391415,413.561066 
	C30.804022,388.950439 17.996931,361.830322 10.313277,332.499298 
	C7.690933,322.488953 6.181954,312.186890 4.622354,302.013977 
	C32.395020,302.006927 59.710274,302.100006 87.023521,301.907928 
	C91.658371,301.875336 93.067657,303.352905 92.984299,307.905182 
	C92.743454,321.058319 92.826378,334.219543 92.943199,347.376160 
	C93.014023,355.352356 98.761108,361.359100 106.525101,361.946625 
	C113.901047,362.504730 120.496437,357.429474 121.959770,349.833344 
	C122.522911,346.910095 122.831703,343.895447 122.858818,340.918823 
	C122.961983,329.594177 122.957634,318.267670 122.868843,306.942810 
	C122.844124,303.790070 123.531715,301.919128 127.256699,301.961334 
	C139.080353,302.095337 150.906998,302.071228 162.731339,301.971344 
	C165.977585,301.943909 167.076248,303.277191 167.140671,306.436432 
	C167.241974,311.403717 167.209595,316.477997 168.227432,321.297089 
	C169.634323,327.958221 177.082336,332.624359 183.827057,331.919525 
	C191.231277,331.145782 196.758942,325.389801 197.043289,318.005981 
	C197.177780,314.513245 197.268890,310.999634 197.043106,307.517303 
	C196.785507,303.544617 198.055756,301.834442 202.354263,301.922455 
	C213.841553,302.157593 225.338715,302.120239 236.827896,301.937317 
	C240.689438,301.875854 242.123077,303.114410 242.066635,307.083038 
	C241.881943,320.071472 241.945633,333.064484 242.020401,346.055176 
	C242.074158,355.395020 247.610336,361.161438 257.025055,361.969238 
	C257.005707,361.996094 256.964447,362.047852 256.972687,362.513428 
	C256.987305,412.986023 256.993652,462.993011 257.000000,513.000000 
z"/>
<path fill="#FF4471" opacity="1.000000" stroke="none" 
	d="
M257.468658,513.000000 
	C256.993652,462.993011 256.987305,412.986023 257.365479,362.491821 
	C267.490448,360.272400 271.964294,355.053131 271.991058,345.256927 
	C272.026123,332.430206 272.033569,319.603241 271.979675,306.776642 
	C271.967773,303.944733 272.364563,301.940521 275.962036,301.972198 
	C288.288116,302.080780 300.616028,302.062408 312.942474,301.977844 
	C315.987000,301.956970 317.113556,303.251129 317.017273,306.182068 
	C316.902496,309.676300 316.934296,313.179108 317.019714,316.675354 
	C317.227600,325.182373 323.650391,331.834229 331.721832,331.982330 
	C340.073761,332.135590 346.740143,325.527679 346.978851,316.779755 
	C347.069672,313.450500 347.177979,310.105133 346.957794,306.788391 
	C346.706543,303.004730 348.359314,301.899323 351.953888,301.946320 
	C363.612610,302.098846 375.277008,302.138214 386.933960,301.929047 
	C390.943451,301.857117 392.112610,303.338287 392.059570,307.178406 
	C391.887085,319.669647 391.983368,332.164825 392.001801,344.658417 
	C392.017578,355.359802 397.876648,362.058014 407.111023,361.982269 
	C415.903107,361.910156 421.973022,354.942627 421.991974,344.834473 
	C422.015411,332.340881 422.134552,319.844910 421.923645,307.354858 
	C421.853516,303.201416 423.272247,301.906891 427.382874,301.929504 
	C454.868011,302.080688 482.354279,302.025421 509.908478,302.451263 
	C506.612000,322.731934 501.575439,342.106812 494.116760,360.889923 
	C482.419220,390.347626 465.898529,416.701019 443.869141,439.427704 
	C435.993408,447.552795 427.221802,454.882751 418.389099,461.991669 
	C400.133514,476.684601 379.633423,487.676239 357.772980,495.843872 
	C337.204132,503.528961 316.008240,509.139282 293.994385,511.085419 
	C293.278748,511.148682 292.662537,512.336426 292.000000,513.000000 
	C280.645782,513.000000 269.291534,513.000000 257.468658,513.000000 
z"/>
<path fill="#000000" opacity="1.000000" stroke="none" 
	d="
M513.000000,228.531342 
	C512.334656,228.189590 511.193604,227.443802 511.073456,226.559326 
	C508.061066,204.385193 501.176453,183.487488 488.982361,164.734116 
	C482.075104,154.111404 474.640381,143.467072 465.649628,134.664383 
	C456.306763,125.516953 445.096283,118.140648 434.169708,110.780807 
	C419.724060,101.050598 403.098419,96.274239 386.364685,92.293106 
	C379.733978,90.715591 372.731262,90.701721 365.604065,89.584236 
	C366.867828,85.288132 368.808533,81.489182 369.917542,77.461243 
	C375.072449,58.738869 378.138306,39.828617 376.178711,20.225622 
	C375.441284,12.849052 374.541718,6.265355 367.738464,2.012293 
	C367.649475,1.956661 367.905182,1.349656 368.000000,1.000001 
	C416.276581,1.000000 464.553192,1.000000 513.000000,1.000000 
	C513.000000,76.687477 513.000000,152.375076 513.000000,228.531342 
z"/>
<path fill="#000000" opacity="1.000000" stroke="none" 
	d="
M148.011597,89.831383 
	C115.349365,92.305695 86.132019,103.299973 60.399178,123.920174 
	C41.094658,139.389252 26.683105,158.476761 16.265404,180.599289 
	C9.482115,195.003952 4.835132,210.224304 2.945490,226.162491 
	C2.841833,227.036774 2.099288,227.835297 1.327066,228.334549 
	C1.000000,152.422638 1.000000,76.845268 1.000000,1.000000 
	C48.687225,1.000000 96.374954,1.000000 144.844925,1.248835 
	C143.092117,5.060658 138.901382,8.368358 138.305908,12.230407 
	C135.591064,29.837568 136.562042,47.522232 140.533051,64.890594 
	C142.463257,73.332832 145.484344,81.525650 148.011597,89.831383 
z"/>
<path fill="#000000" opacity="1.000000" stroke="none" 
	d="
M292.468628,513.000000 
	C292.662537,512.336426 293.278748,511.148682 293.994385,511.085419 
	C316.008240,509.139282 337.204132,503.528961 357.772980,495.843872 
	C379.633423,487.676239 400.133514,476.684601 418.389099,461.991669 
	C427.221802,454.882751 435.993408,447.552795 443.869141,439.427704 
	C465.898529,416.701019 482.419220,390.347626 494.116760,360.889923 
	C501.575439,342.106812 506.612000,322.731934 509.975311,302.035583 
	C510.320251,298.849121 510.527924,296.458740 511.087250,294.153717 
	C511.287201,293.329620 512.337708,292.711914 513.000000,292.000000 
	C513.000000,365.593689 513.000000,439.187378 513.000000,513.000000 
	C439.645905,513.000000 366.291626,513.000000 292.468628,513.000000 
z"/>
<path fill="#000000" opacity="1.000000" stroke="none" 
	d="
M4.164269,302.018127 
	C6.181954,312.186890 7.690933,322.488953 10.313277,332.499298 
	C17.996931,361.830322 30.804022,388.950439 48.391415,413.561066 
	C59.961430,429.751343 73.620285,444.159241 89.137100,456.924713 
	C105.261223,470.189758 122.734322,481.076233 141.562805,489.719421 
	C160.154861,498.254059 179.613770,504.480286 199.843353,507.975037 
	C206.749634,509.168121 213.717819,510.000214 220.644272,511.083374 
	C221.368744,511.196686 222.001572,511.895905 222.338455,512.661621 
	C148.406296,513.000000 74.812599,513.000000 1.000000,513.000000 
	C1.000000,439.645905 1.000000,366.291626 1.387612,292.264008 
	C2.571573,295.066498 3.367922,298.542328 4.164269,302.018127 
z"/>
<path fill="#D22048" opacity="1.000000" stroke="none" 
	d="
M513.000000,291.531616 
	C512.337708,292.711914 511.287201,293.329620 511.087250,294.153717 
	C510.527924,296.458740 510.320251,298.849121 509.907013,301.621490 
	C482.354279,302.025421 454.868011,302.080688 427.382874,301.929504 
	C423.272247,301.906891 421.853516,303.201416 421.923645,307.354858 
	C422.134552,319.844910 422.015411,332.340881 421.991974,344.834473 
	C421.973022,354.942627 415.903107,361.910156 407.111023,361.982269 
	C397.876648,362.058014 392.017578,355.359802 392.001801,344.658417 
	C391.983368,332.164825 391.887085,319.669647 392.059570,307.178406 
	C392.112610,303.338287 390.943451,301.857117 386.933960,301.929047 
	C375.277008,302.138214 363.612610,302.098846 351.953888,301.946320 
	C348.359314,301.899323 346.706543,303.004730 346.957794,306.788391 
	C347.177979,310.105133 347.069672,313.450500 346.978851,316.779755 
	C346.740143,325.527679 340.073761,332.135590 331.721832,331.982330 
	C323.650391,331.834229 317.227600,325.182373 317.019714,316.675354 
	C316.934296,313.179108 316.902496,309.676300 317.017273,306.182068 
	C317.113556,303.251129 315.987000,301.956970 312.942474,301.977844 
	C300.616028,302.062408 288.288116,302.080780 275.962036,301.972198 
	C272.364563,301.940521 271.967773,303.944733 271.979675,306.776642 
	C272.033569,319.603241 272.026123,332.430206 271.991058,345.256927 
	C271.964294,355.053131 267.490448,360.272400 257.357239,362.026215 
	C256.964447,362.047852 257.005707,361.996094 257.013123,361.505890 
	C257.027557,331.361542 257.034546,301.707367 257.041534,272.053223 
	C257.041534,272.053223 257.002838,272.000305 256.982422,271.974304 
	C341.995575,271.965790 427.029114,271.983307 512.531372,272.000427 
	C513.000000,278.354401 513.000000,284.708801 513.000000,291.531616 
z"/>
<path fill="#EA315A" opacity="1.000000" stroke="none" 
	d="
M256.569458,272.037872 
	C257.034546,301.707367 257.027557,331.361542 257.032471,361.479034 
	C247.610336,361.161438 242.074158,355.395020 242.020401,346.055176 
	C241.945633,333.064484 241.881943,320.071472 242.066635,307.083038 
	C242.123077,303.114410 240.689438,301.875854 236.827896,301.937317 
	C225.338715,302.120239 213.841553,302.157593 202.354263,301.922455 
	C198.055756,301.834442 196.785507,303.544617 197.043106,307.517303 
	C197.268890,310.999634 197.177780,314.513245 197.043289,318.005981 
	C196.758942,325.389801 191.231277,331.145782 183.827057,331.919525 
	C177.082336,332.624359 169.634323,327.958221 168.227432,321.297089 
	C167.209595,316.477997 167.241974,311.403717 167.140671,306.436432 
	C167.076248,303.277191 165.977585,301.943909 162.731339,301.971344 
	C150.906998,302.071228 139.080353,302.095337 127.256699,301.961334 
	C123.531715,301.919128 122.844124,303.790070 122.868843,306.942810 
	C122.957634,318.267670 122.961983,329.594177 122.858818,340.918823 
	C122.831703,343.895447 122.522911,346.910095 121.959770,349.833344 
	C120.496437,357.429474 113.901047,362.504730 106.525101,361.946625 
	C98.761108,361.359100 93.014023,355.352356 92.943199,347.376160 
	C92.826378,334.219543 92.743454,321.058319 92.984299,307.905182 
	C93.067657,303.352905 91.658371,301.875336 87.023521,301.907928 
	C59.710274,302.100006 32.395020,302.006927 4.622355,302.013977 
	C3.367922,298.542328 2.571573,295.066498 1.387612,291.795349 
	C1.000000,285.645599 1.000000,279.291199 1.000000,272.468384 
	C86.032448,272.007507 171.064896,272.015015 256.569458,272.037872 
z"/>
<path fill="#00DDC3" opacity="1.000000" stroke="none" 
	d="
M148.474716,89.902969 
	C145.484344,81.525650 142.463257,73.332832 140.533051,64.890594 
	C136.562042,47.522232 135.591064,29.837568 138.305908,12.230407 
	C138.901382,8.368358 143.092117,5.060658 145.313583,1.248835 
	C154.354233,1.000000 163.708450,1.000000 173.193542,1.325098 
	C173.989548,2.086410 174.600540,2.748883 175.328384,2.923032 
	C181.132660,4.311803 186.988480,5.491580 192.773697,6.952490 
	C219.855453,13.791304 241.721298,28.123638 256.980621,52.359489 
	C256.991211,72.633781 257.021271,92.432220 256.960449,112.230392 
	C256.954468,114.170250 256.389771,116.108391 256.084381,118.047325 
	C240.425995,108.898872 224.196991,101.060043 206.651443,96.148788 
	C187.749588,90.857880 168.488678,89.106445 148.474716,89.902969 
z"/>
<path fill="#00C1AE" opacity="1.000000" stroke="none" 
	d="
M256.186707,118.248276 
	C256.389771,116.108391 256.954468,114.170250 256.960449,112.230392 
	C257.021271,92.432220 256.991211,72.633781 257.111267,52.041405 
	C262.896637,41.922840 270.083771,33.848152 278.628815,27.197618 
	C295.818329,13.819180 315.733673,6.703229 336.991791,2.922384 
	C337.751129,2.787330 338.334564,1.663172 339.000000,0.999997 
	C348.354218,1.000000 357.708466,1.000000 367.531342,1.000001 
	C367.905182,1.349656 367.649475,1.956661 367.738464,2.012293 
	C374.541718,6.265355 375.441284,12.849052 376.178711,20.225622 
	C378.138306,39.828617 375.072449,58.738869 369.917542,77.461243 
	C368.808533,81.489182 366.867828,85.288132 365.155273,89.513168 
	C347.680511,89.442390 330.490692,90.284805 313.574249,94.522491 
	C293.598724,99.526512 274.976624,107.595894 257.315186,118.777924 
	C256.784821,118.794144 256.536224,118.622749 256.186707,118.248276 
z"/>
<path fill="#000000" opacity="1.000000" stroke="none" 
	d="
M338.531342,0.999997 
	C338.334564,1.663172 337.751129,2.787330 336.991791,2.922384 
	C315.733673,6.703229 295.818329,13.819180 278.628815,27.197618 
	C270.083771,33.848152 262.896637,41.922840 257.105286,51.565483 
	C241.721298,28.123638 219.855453,13.791304 192.773697,6.952490 
	C186.988480,5.491580 181.132660,4.311803 175.328384,2.923032 
	C174.600540,2.748883 173.989548,2.086410 173.662201,1.325098 
	C228.687561,1.000000 283.375122,1.000000 338.531342,0.999997 
z"/>
<path fill="#EA325A" opacity="1.000000" stroke="none" 
	d="
M256.997650,242.092743 
	C255.222107,241.744171 252.946640,241.865204 251.772415,240.786957 
	C243.761307,233.430740 235.194122,226.461746 228.390900,218.081482 
	C223.455536,212.002090 226.098251,204.076569 232.350494,199.189819 
	C237.878052,194.869507 245.725784,195.291260 251.616211,200.276993 
	C253.261642,201.669724 254.801788,203.186829 256.693420,204.775024 
	C256.996613,204.903183 257.024536,205.099304 257.027527,205.635727 
	C257.027771,218.060257 257.025055,229.948380 257.022339,241.836487 
	C257.022339,241.836487 257.007263,242.007477 256.997650,242.092743 
z"/>
<path fill="#D32149" opacity="1.000000" stroke="none" 
	d="
M257.408020,241.872040 
	C257.025055,229.948380 257.027771,218.060257 257.043091,205.733551 
	C259.550568,203.107834 261.819824,200.566956 264.584930,198.803635 
	C271.362213,194.481705 278.270569,195.439072 283.602173,201.007324 
	C288.764587,206.398865 289.733429,214.033081 284.667999,220.089325 
	C279.041321,226.816574 272.539001,232.864899 266.000000,238.744034 
	C263.963043,240.575439 260.567383,240.895599 257.408020,241.872040 
z"/>
</svg>